<svg width="2815" height="1967" xmlns="http://www.w3.org/2000/svg" xmlns:xlink="http://www.w3.org/1999/xlink" xml:space="preserve" overflow="hidden"><g transform="translate(-1102 -241)"><rect x="2749" y="242" width="1167" height="625" stroke="#042433" stroke-width="2.29167" stroke-miterlimit="8" fill="#F2F2F2"/><text font-family="Aptos,Aptos_MSFontService,sans-serif" font-weight="400" font-size="55" transform="matrix(1 0 0 1 2783.94 310)">Zone A</text><path d="M2989 331.197C2989 317.833 2999.83 307 3013.2 307L3810.8 307C3824.17 307 3835 317.833 3835 331.197L3835 788.803C3835 802.167 3824.17 813 3810.8 813L3013.2 813C2999.83 813 2989 802.167 2989 788.803Z" stroke="#7F7F7F" stroke-width="2.29167" stroke-miterlimit="8" fill="#D9D9D9" fill-rule="evenodd"/><text fill="#595959" font-family="Aptos,Aptos_MSFontService,sans-serif" font-weight="400" font-size="46" transform="matrix(1 0 0 1 3038.32 365)">Node A</text><path d="M2970.55 412.076 2969.55 412.076 2969.55 411.076 2970.55 411.076Z" stroke="#3A414A" stroke-width="0.0422244" stroke-miterlimit="8" fill="#3A414A" fill-rule="evenodd"/><path d="M2946 393.667C2946 388.88 2949.88 385 2954.67 385L3045.33 385C3050.12 385 3054 388.88 3054 393.667L3054 428.333C3054 433.12 3050.12 437 3045.33 437L2954.67 437C2949.88 437 2946 433.12 2946 428.333Z" stroke="#042433" stroke-width="2.29167" stroke-miterlimit="8" fill="#FFFFFF" fill-rule="evenodd"/><text font-family="Aptos,Aptos_MSFontService,sans-serif" font-weight="400" font-size="37" transform="matrix(1 0 0 1 2961.78 423)">ens3</text><path d="M3224 408.834C3224 398.432 3232.43 390 3242.83 390L3392.17 390C3402.57 390 3411 398.432 3411 408.834L3411 484.166C3411 494.568 3402.57 503 3392.17 503L3242.83 503C3232.43 503 3224 494.568 3224 484.166Z" stroke="#042433" stroke-width="2.29167" stroke-miterlimit="8" fill="#C00000" fill-rule="evenodd" fill-opacity="0.521569"/><text font-family="Aptos,Aptos_MSFontService,sans-serif" font-weight="700" font-size="37" transform="matrix(1 0 0 1 3262.55 458)">TMM A</text><path d="M3107 393.833C3107 388.955 3110.96 385 3115.83 385L3244.17 385C3249.05 385 3253 388.955 3253 393.833L3253 429.166C3253 434.045 3249.05 438 3244.17 438L3115.83 438C3110.96 438 3107 434.045 3107 429.166Z" stroke="#042433" stroke-width="2.29167" stroke-miterlimit="8" fill="#FFFFFF" fill-rule="evenodd"/><text font-family="Aptos,Aptos_MSFontService,sans-serif" font-weight="400" font-size="37" transform="matrix(1 0 0 1 3115.03 423)">External</text><path d="M3107 467C3107 462.029 3111.03 458 3116 458L3244 458C3248.97 458 3253 462.029 3253 467L3253 503C3253 507.97 3248.97 512 3244 512L3116 512C3111.03 512 3107 507.97 3107 503Z" stroke="#042433" stroke-width="2.29167" stroke-miterlimit="8" fill="#FFFFFF" fill-rule="evenodd"/><text font-family="Aptos,Aptos_MSFontService,sans-serif" font-weight="400" font-size="37" transform="matrix(1 0 0 1 3118.47 497)">Internal</text><path d="M3383 467C3383 462.029 3387.03 458 3392 458L3521 458C3525.97 458 3530 462.029 3530 467L3530 503C3530 507.97 3525.97 512 3521 512L3392 512C3387.03 512 3383 507.97 3383 503Z" stroke="#042433" stroke-width="2.29167" stroke-miterlimit="8" fill="#FFFFFF" fill-rule="evenodd"/><text font-family="Aptos,Aptos_MSFontService,sans-serif" font-weight="400" font-size="37" transform="matrix(1 0 0 1 3420.97 497)">eth0</text><path d="M3107 577C3107 572.029 3111.03 568 3116 568L3244 568C3248.97 568 3253 572.029 3253 577L3253 613C3253 617.97 3248.97 622 3244 622L3116 622C3111.03 622 3107 617.97 3107 613Z" stroke="#042433" stroke-width="2.29167" stroke-miterlimit="8" fill="#FFFFFF" fill-rule="evenodd"/><text font-family="Aptos,Aptos_MSFontService,sans-serif" font-weight="400" font-size="37" transform="matrix(1 0 0 1 3109.59 607)">dummy0</text><path d="M3108 675C3108 670.029 3112.03 666 3117 666L3246 666C3250.97 666 3255 670.029 3255 675L3255 711C3255 715.97 3250.97 720 3246 720L3117 720C3112.03 720 3108 715.97 3108 711Z" stroke="#042433" stroke-width="2.29167" stroke-miterlimit="8" fill="#FFFFFF" fill-rule="evenodd"/><text font-family="Aptos,Aptos_MSFontService,sans-serif" font-weight="400" font-size="37" transform="matrix(1 0 0 1 3132.79 705)">shim0</text><path d="M3106.41 412.577 3076.91 412.334 3076.93 410.043 3106.43 410.285ZM3081.39 424.976 3054 411 3081.61 397.477Z"/><path d="M1.14583-7.29078e-06 1.14605 33.8019-1.14562 33.8019-1.14583 7.29078e-06ZM13.7502 29.2185 0.000360892 56.7186-13.7498 29.2187Z" transform="matrix(1 0 0 -1 3180 568.718)"/><path d="M3180.57 666.732 3179.74 644.944 3182.03 644.856 3182.86 666.644ZM3167.32 650.008 3180 622 3194.8 648.951Z"/><path d="M3590 410C3590 399.507 3598.51 391 3609 391L3758 391C3768.49 391 3777 399.507 3777 410L3777 486C3777 496.493 3768.49 505 3758 505L3609 505C3598.51 505 3590 496.493 3590 486Z" stroke="#042433" stroke-width="2.29167" stroke-miterlimit="8" fill="#FFFFFF" fill-rule="evenodd" fill-opacity="0.521569"/><text font-family="Aptos,Aptos_MSFontService,sans-serif" font-weight="700" font-size="37" transform="matrix(1 0 0 1 3634.37 460)">APP A</text><path d="M3564 494.834C3564 489.955 3567.95 486 3572.83 486L3656.17 486C3661.05 486 3665 489.955 3665 494.834L3665 530.166C3665 535.045 3661.05 539 3656.17 539L3572.83 539C3567.95 539 3564 535.045 3564 530.166Z" stroke="#042433" stroke-width="2.29167" stroke-miterlimit="8" fill="#FFFFFF" fill-rule="evenodd"/><text font-family="Aptos,Aptos_MSFontService,sans-serif" font-weight="400" font-size="37" transform="matrix(1 0 0 1 3579.09 525)">eth0</text><path d="M3509 675C3509 670.029 3513.03 666 3518 666L3718 666C3722.97 666 3727 670.029 3727 675L3727 711C3727 715.971 3722.97 720 3718 720L3518 720C3513.03 720 3509 715.971 3509 711Z" stroke="#042433" stroke-width="2.29167" stroke-miterlimit="8" fill="#FFFFFF" fill-rule="evenodd"/><text font-family="Aptos,Aptos_MSFontService,sans-serif" font-weight="400" font-size="37" transform="matrix(1 0 0 1 3516.93 705)">Calico App A</text><path d="M3616.15 538.969 3618.96 643.251 3616.67 643.313 3613.85 539.031ZM3631.44 638.329 3618.44 666.19 3603.95 639.072Z"/><path d="M2801 711.334C2801 703.417 2807.42 697 2815.33 697L2946.67 697C2954.58 697 2961 703.417 2961 711.334L2961 768.667C2961 776.583 2954.58 783 2946.67 783L2815.33 783C2807.42 783 2801 776.583 2801 768.667Z" stroke="#042433" stroke-width="2.29167" stroke-miterlimit="8" fill="#595959" fill-rule="evenodd"/><text fill="#FFFFFF" font-family="Aptos,Aptos_MSFontService,sans-serif" font-weight="400" font-size="41" transform="matrix(1 0 0 1 2835.16 754)">VSI A</text><path d="M3228.5 375.5C3228.5 366.111 3236.33 358.5 3246 358.5 3255.67 358.5 3263.5 366.111 3263.5 375.5 3263.5 384.889 3255.67 392.5 3246 392.5 3236.33 392.5 3228.5 384.889 3228.5 375.5Z" stroke="#FF0000" stroke-width="6.875" stroke-miterlimit="8" fill="#C00000" fill-rule="evenodd"/><text fill="#C00000" font-family="Aptos,Aptos_MSFontService,sans-serif" font-weight="700" font-size="48" transform="matrix(1 0 0 1 3281.09 362)">Self IP Next Hop</text><text font-family="Aptos,Aptos_MSFontService,sans-serif" font-weight="700" font-size="28" transform="matrix(1 0 0 1 3006.09 463)">IPVLAN</text><text font-family="Aptos,Aptos_MSFontService,sans-serif" font-weight="700" font-size="28" transform="matrix(1 0 0 1 3210.05 550)">MACVLAN</text><text font-family="Aptos,Aptos_MSFontService,sans-serif" font-weight="700" font-size="28" transform="matrix(1 0 0 1 2818.87 470)">VPC Single</text><text font-family="Aptos,Aptos_MSFontService,sans-serif" font-weight="700" font-size="28" transform="matrix(1 0 0 1 2818.87 503)">NIC Subnet</text><text font-family="Aptos,Aptos_MSFontService,sans-serif" font-weight="700" font-size="28" transform="matrix(1 0 0 1 2818.87 536)">Address</text><path d="M2917.5 409C2917.5 399.335 2925.33 391.5 2935 391.5 2944.67 391.5 2952.5 399.335 2952.5 409 2952.5 418.665 2944.67 426.5 2935 426.5 2925.33 426.5 2917.5 418.665 2917.5 409Z" stroke="#000000" stroke-width="6.875" stroke-miterlimit="8" fill="#F2F2F2" fill-rule="evenodd"/><path d="M2717.42 406.062 2895.33 406.063 2895.33 412.938 2717.42 412.937ZM2722 423.25 2694.5 409.5 2722 395.75ZM2890.74 395.75 2918.24 409.5 2890.74 423.25Z"/><text font-family="Aptos,Aptos_MSFontService,sans-serif" font-weight="700" font-size="46" transform="matrix(1 0 0 1 3344.96 776)">f5</text><text font-family="Aptos,Aptos_MSFontService,sans-serif" font-weight="700" font-size="46" transform="matrix(1 0 0 1 3385.06 776)">-</text><text font-family="Aptos,Aptos_MSFontService,sans-serif" font-weight="700" font-size="46" transform="matrix(1 0 0 1 3400.53 776)">tmm</text><path d="M2389.5 409C2389.5 324.776 2457.78 256.5 2542 256.5 2626.22 256.5 2694.5 324.776 2694.5 409 2694.5 493.223 2626.22 561.5 2542 561.5 2457.78 561.5 2389.5 493.223 2389.5 409Z" stroke="#042433" stroke-width="6.875" stroke-miterlimit="8" fill="#D9D9D9" fill-rule="evenodd"/><text font-family="Aptos,Aptos_MSFontService,sans-serif" font-weight="400" font-size="64" transform="matrix(1 0 0 1 2481.44 391)">VPC</text><text font-family="Aptos,Aptos_MSFontService,sans-serif" font-weight="400" font-size="64" transform="matrix(1 0 0 1 2448.37 468)">Router</text><rect x="2749" y="911" width="1167" height="626" stroke="#042433" stroke-width="2.29167" stroke-miterlimit="8" fill="#F2F2F2"/><text font-family="Aptos,Aptos_MSFontService,sans-serif" font-weight="400" font-size="55" transform="matrix(1 0 0 1 2783.94 980)">Zone B</text><path d="M2989 1001.2C2989 987.833 2999.83 977 3013.2 977L3810.8 977C3824.17 977 3835 987.833 3835 1001.2L3835 1458.8C3835 1472.17 3824.17 1483 3810.8 1483L3013.2 1483C2999.83 1483 2989 1472.17 2989 1458.8Z" stroke="#7F7F7F" stroke-width="2.29167" stroke-miterlimit="8" fill="#D9D9D9" fill-rule="evenodd"/><text fill="#595959" font-family="Aptos,Aptos_MSFontService,sans-serif" font-weight="400" font-size="46" transform="matrix(1 0 0 1 3038.32 1034)">Node B</text><path d="M2970.55 1081.08 2969.55 1081.08 2969.55 1080.08 2970.55 1080.08Z" stroke="#3A414A" stroke-width="0.0422244" stroke-miterlimit="8" fill="#3A414A" fill-rule="evenodd"/><path d="M2946 1062.67C2946 1057.88 2949.88 1054 2954.67 1054L3045.33 1054C3050.12 1054 3054 1057.88 3054 1062.67L3054 1097.33C3054 1102.12 3050.12 1106 3045.33 1106L2954.67 1106C2949.88 1106 2946 1102.12 2946 1097.33Z" stroke="#042433" stroke-width="2.29167" stroke-miterlimit="8" fill="#FFFFFF" fill-rule="evenodd"/><text font-family="Aptos,Aptos_MSFontService,sans-serif" font-weight="400" font-size="37" transform="matrix(1 0 0 1 2961.78 1092)">ens3</text><path d="M3224 1078C3224 1067.51 3232.51 1059 3243 1059L3392 1059C3402.49 1059 3411 1067.51 3411 1078L3411 1154C3411 1164.49 3402.49 1173 3392 1173L3243 1173C3232.51 1173 3224 1164.49 3224 1154Z" stroke="#042433" stroke-width="2.29167" stroke-miterlimit="8" fill="#C00000" fill-rule="evenodd" fill-opacity="0.521569"/><text font-family="Aptos,Aptos_MSFontService,sans-serif" font-weight="700" font-size="37" transform="matrix(1 0 0 1 3262.55 1128)">TMM A</text><path d="M3107 1062.83C3107 1057.95 3110.96 1054 3115.83 1054L3244.17 1054C3249.05 1054 3253 1057.95 3253 1062.83L3253 1098.17C3253 1103.04 3249.05 1107 3244.17 1107L3115.83 1107C3110.96 1107 3107 1103.04 3107 1098.17Z" stroke="#042433" stroke-width="2.29167" stroke-miterlimit="8" fill="#FFFFFF" fill-rule="evenodd"/><text font-family="Aptos,Aptos_MSFontService,sans-serif" font-weight="400" font-size="37" transform="matrix(1 0 0 1 3115.03 1093)">External</text><path d="M3107 1136.83C3107 1131.95 3110.96 1128 3115.83 1128L3244.17 1128C3249.04 1128 3253 1131.95 3253 1136.83L3253 1172.17C3253 1177.05 3249.04 1181 3244.17 1181L3115.83 1181C3110.96 1181 3107 1177.05 3107 1172.17Z" stroke="#042433" stroke-width="2.29167" stroke-miterlimit="8" fill="#FFFFFF" fill-rule="evenodd"/><text font-family="Aptos,Aptos_MSFontService,sans-serif" font-weight="400" font-size="37" transform="matrix(1 0 0 1 3118.47 1167)">Internal</text><path d="M3383 1136.83C3383 1131.95 3386.95 1128 3391.83 1128L3521.17 1128C3526.04 1128 3530 1131.95 3530 1136.83L3530 1172.17C3530 1177.05 3526.04 1181 3521.17 1181L3391.83 1181C3386.95 1181 3383 1177.05 3383 1172.17Z" stroke="#042433" stroke-width="2.29167" stroke-miterlimit="8" fill="#FFFFFF" fill-rule="evenodd"/><text font-family="Aptos,Aptos_MSFontService,sans-serif" font-weight="400" font-size="37" transform="matrix(1 0 0 1 3420.97 1167)">eth0</text><path d="M3107 1246.83C3107 1241.95 3110.96 1238 3115.83 1238L3244.17 1238C3249.04 1238 3253 1241.95 3253 1246.83L3253 1282.17C3253 1287.05 3249.04 1291 3244.17 1291L3115.83 1291C3110.96 1291 3107 1287.05 3107 1282.17Z" stroke="#042433" stroke-width="2.29167" stroke-miterlimit="8" fill="#FFFFFF" fill-rule="evenodd"/><text font-family="Aptos,Aptos_MSFontService,sans-serif" font-weight="400" font-size="37" transform="matrix(1 0 0 1 3109.59 1277)">dummy0</text><path d="M3108 1344.83C3108 1339.96 3111.95 1336 3116.83 1336L3246.17 1336C3251.04 1336 3255 1339.96 3255 1344.83L3255 1380.17C3255 1385.05 3251.04 1389 3246.17 1389L3116.83 1389C3111.95 1389 3108 1385.05 3108 1380.17Z" stroke="#042433" stroke-width="2.29167" stroke-miterlimit="8" fill="#FFFFFF" fill-rule="evenodd"/><text font-family="Aptos,Aptos_MSFontService,sans-serif" font-weight="400" font-size="37" transform="matrix(1 0 0 1 3132.79 1375)">shim0</text><path d="M3106.41 1081.58 3076.91 1081.33 3076.93 1079.04 3106.43 1079.29ZM3081.39 1093.98 3054 1080 3081.61 1066.48Z"/><path d="M1.14583-7.29078e-06 1.14605 33.8019-1.14562 33.8019-1.14583 7.29078e-06ZM13.7502 29.2185 0.000360892 56.7186-13.7498 29.2187Z" transform="matrix(1 0 0 -1 3180 1237.72)"/><path d="M3180.57 1335.73 3179.74 1313.94 3182.03 1313.86 3182.86 1335.64ZM3167.32 1319.01 3180 1291 3194.8 1317.95Z"/><path d="M3590 1079.83C3590 1069.43 3598.43 1061 3608.83 1061L3758.17 1061C3768.57 1061 3777 1069.43 3777 1079.83L3777 1155.17C3777 1165.57 3768.57 1174 3758.17 1174L3608.83 1174C3598.43 1174 3590 1165.57 3590 1155.17Z" stroke="#042433" stroke-width="2.29167" stroke-miterlimit="8" fill="#FFFFFF" fill-rule="evenodd" fill-opacity="0.521569"/><text font-family="Aptos,Aptos_MSFontService,sans-serif" font-weight="700" font-size="37" transform="matrix(1 0 0 1 3634.37 1130)">APP A</text><path d="M3564 1164C3564 1159.03 3568.03 1155 3573 1155L3656 1155C3660.97 1155 3665 1159.03 3665 1164L3665 1200C3665 1204.97 3660.97 1209 3656 1209L3573 1209C3568.03 1209 3564 1204.97 3564 1200Z" stroke="#042433" stroke-width="2.29167" stroke-miterlimit="8" fill="#FFFFFF" fill-rule="evenodd"/><text font-family="Aptos,Aptos_MSFontService,sans-serif" font-weight="400" font-size="37" transform="matrix(1 0 0 1 3579.09 1194)">eth0</text><path d="M3509 1344.83C3509 1339.95 3512.95 1336 3517.83 1336L3718.17 1336C3723.04 1336 3727 1339.95 3727 1344.83L3727 1380.17C3727 1385.05 3723.04 1389 3718.17 1389L3517.83 1389C3512.95 1389 3509 1385.05 3509 1380.17Z" stroke="#042433" stroke-width="2.29167" stroke-miterlimit="8" fill="#FFFFFF" fill-rule="evenodd"/><text font-family="Aptos,Aptos_MSFontService,sans-serif" font-weight="400" font-size="37" transform="matrix(1 0 0 1 3516.93 1375)">Calico App A</text><path d="M3616.15 1208.97 3618.96 1313.25 3616.67 1313.31 3613.85 1209.03ZM3631.44 1308.33 3618.44 1336.19 3603.95 1309.07Z"/><path d="M2801 1381.33C2801 1373.42 2807.42 1367 2815.33 1367L2946.67 1367C2954.58 1367 2961 1373.42 2961 1381.33L2961 1438.67C2961 1446.58 2954.58 1453 2946.67 1453L2815.33 1453C2807.42 1453 2801 1446.58 2801 1438.67Z" stroke="#042433" stroke-width="2.29167" stroke-miterlimit="8" fill="#595959" fill-rule="evenodd"/><text fill="#FFFFFF" font-family="Aptos,Aptos_MSFontService,sans-serif" font-weight="400" font-size="41" transform="matrix(1 0 0 1 2834.88 1423)">VSI B</text><path d="M3228.5 1045C3228.5 1035.34 3236.33 1027.5 3246 1027.5 3255.67 1027.5 3263.5 1035.34 3263.5 1045 3263.5 1054.67 3255.67 1062.5 3246 1062.5 3236.33 1062.5 3228.5 1054.67 3228.5 1045Z" stroke="#FF0000" stroke-width="6.875" stroke-miterlimit="8" fill="#C00000" fill-rule="evenodd"/><text fill="#C00000" font-family="Aptos,Aptos_MSFontService,sans-serif" font-weight="700" font-size="48" transform="matrix(1 0 0 1 3281.09 1032)">Self IP Next Hop</text><text font-family="Aptos,Aptos_MSFontService,sans-serif" font-weight="700" font-size="28" transform="matrix(1 0 0 1 3006.09 1132)">IPVLAN</text><text font-family="Aptos,Aptos_MSFontService,sans-serif" font-weight="700" font-size="28" transform="matrix(1 0 0 1 3210.05 1219)">MACVLAN</text><text font-family="Aptos,Aptos_MSFontService,sans-serif" font-weight="700" font-size="28" transform="matrix(1 0 0 1 2818.87 1139)">VPC Single</text><text font-family="Aptos,Aptos_MSFontService,sans-serif" font-weight="700" font-size="28" transform="matrix(1 0 0 1 2818.87 1172)">NIC Subnet</text><text font-family="Aptos,Aptos_MSFontService,sans-serif" font-weight="700" font-size="28" transform="matrix(1 0 0 1 2818.87 1205)">Address</text><path d="M2917.5 1078.5C2917.5 1069.11 2925.33 1061.5 2935 1061.5 2944.67 1061.5 2952.5 1069.11 2952.5 1078.5 2952.5 1087.89 2944.67 1095.5 2935 1095.5 2925.33 1095.5 2917.5 1087.89 2917.5 1078.5Z" stroke="#000000" stroke-width="6.875" stroke-miterlimit="8" fill="#F2F2F2" fill-rule="evenodd"/><path d="M2717.42 1075.06 2895.33 1075.06 2895.33 1081.94 2717.42 1081.94ZM2722 1092.25 2694.5 1078.5 2722 1064.75ZM2890.74 1064.75 2918.24 1078.5 2890.74 1092.25Z"/><text font-family="Aptos,Aptos_MSFontService,sans-serif" font-weight="700" font-size="46" transform="matrix(1 0 0 1 3344.96 1445)">f5</text><text font-family="Aptos,Aptos_MSFontService,sans-serif" font-weight="700" font-size="46" transform="matrix(1 0 0 1 3385.06 1445)">-</text><text font-family="Aptos,Aptos_MSFontService,sans-serif" font-weight="700" font-size="46" transform="matrix(1 0 0 1 3400.53 1445)">tmm</text><path d="M2389.5 1078.5C2389.5 994.553 2457.78 926.5 2542 926.5 2626.22 926.5 2694.5 994.553 2694.5 1078.5 2694.5 1162.45 2626.22 1230.5 2542 1230.5 2457.78 1230.5 2389.5 1162.45 2389.5 1078.5Z" stroke="#042433" stroke-width="6.875" stroke-miterlimit="8" fill="#D9D9D9" fill-rule="evenodd"/><text font-family="Aptos,Aptos_MSFontService,sans-serif" font-weight="400" font-size="64" transform="matrix(1 0 0 1 2481.44 1060)">VPC</text><text font-family="Aptos,Aptos_MSFontService,sans-serif" font-weight="400" font-size="64" transform="matrix(1 0 0 1 2448.37 1137)">Router</text><rect x="2749" y="1581" width="1167" height="626" stroke="#042433" stroke-width="2.29167" stroke-miterlimit="8" fill="#F2F2F2"/><text font-family="Aptos,Aptos_MSFontService,sans-serif" font-weight="400" font-size="55" transform="matrix(1 0 0 1 2783.94 1650)">Zone C</text><path d="M2989 1670.2C2989 1656.83 2999.83 1646 3013.2 1646L3810.8 1646C3824.17 1646 3835 1656.83 3835 1670.2L3835 2127.8C3835 2141.17 3824.17 2152 3810.8 2152L3013.2 2152C2999.83 2152 2989 2141.17 2989 2127.8Z" stroke="#7F7F7F" stroke-width="2.29167" stroke-miterlimit="8" fill="#D9D9D9" fill-rule="evenodd"/><text fill="#595959" font-family="Aptos,Aptos_MSFontService,sans-serif" font-weight="400" font-size="46" transform="matrix(1 0 0 1 3038.32 1704)">Node C</text><path d="M2970.55 1751.08 2969.55 1751.08 2969.55 1750.08 2970.55 1750.08Z" stroke="#3A414A" stroke-width="0.0422244" stroke-miterlimit="8" fill="#3A414A" fill-rule="evenodd"/><path d="M2946 1732.67C2946 1727.88 2949.88 1724 2954.67 1724L3045.33 1724C3050.12 1724 3054 1727.88 3054 1732.67L3054 1767.33C3054 1772.12 3050.12 1776 3045.33 1776L2954.67 1776C2949.88 1776 2946 1772.12 2946 1767.33Z" stroke="#042433" stroke-width="2.29167" stroke-miterlimit="8" fill="#FFFFFF" fill-rule="evenodd"/><text font-family="Aptos,Aptos_MSFontService,sans-serif" font-weight="400" font-size="37" transform="matrix(1 0 0 1 2961.78 1762)">ens3</text><path d="M3224 1747.83C3224 1737.43 3232.43 1729 3242.83 1729L3392.17 1729C3402.57 1729 3411 1737.43 3411 1747.83L3411 1823.17C3411 1833.57 3402.57 1842 3392.17 1842L3242.83 1842C3232.43 1842 3224 1833.57 3224 1823.17Z" stroke="#042433" stroke-width="2.29167" stroke-miterlimit="8" fill="#C00000" fill-rule="evenodd" fill-opacity="0.521569"/><text font-family="Aptos,Aptos_MSFontService,sans-serif" font-weight="700" font-size="37" transform="matrix(1 0 0 1 3262.55 1798)">TMM A</text><path d="M3107 1732.83C3107 1727.95 3110.96 1724 3115.83 1724L3244.17 1724C3249.05 1724 3253 1727.95 3253 1732.83L3253 1768.17C3253 1773.04 3249.05 1777 3244.17 1777L3115.83 1777C3110.96 1777 3107 1773.04 3107 1768.17Z" stroke="#042433" stroke-width="2.29167" stroke-miterlimit="8" fill="#FFFFFF" fill-rule="evenodd"/><text font-family="Aptos,Aptos_MSFontService,sans-serif" font-weight="400" font-size="37" transform="matrix(1 0 0 1 3115.03 1762)">External</text><path d="M3107 1806.83C3107 1801.95 3110.96 1798 3115.83 1798L3244.17 1798C3249.05 1798 3253 1801.95 3253 1806.83L3253 1842.17C3253 1847.05 3249.05 1851 3244.17 1851L3115.83 1851C3110.96 1851 3107 1847.05 3107 1842.17Z" stroke="#042433" stroke-width="2.29167" stroke-miterlimit="8" fill="#FFFFFF" fill-rule="evenodd"/><text font-family="Aptos,Aptos_MSFontService,sans-serif" font-weight="400" font-size="37" transform="matrix(1 0 0 1 3118.47 1836)">Internal</text><path d="M3383 1806.83C3383 1801.96 3386.95 1798 3391.83 1798L3521.17 1798C3526.04 1798 3530 1801.96 3530 1806.83L3530 1842.17C3530 1847.05 3526.04 1851 3521.17 1851L3391.83 1851C3386.95 1851 3383 1847.05 3383 1842.17Z" stroke="#042433" stroke-width="2.29167" stroke-miterlimit="8" fill="#FFFFFF" fill-rule="evenodd"/><text font-family="Aptos,Aptos_MSFontService,sans-serif" font-weight="400" font-size="37" transform="matrix(1 0 0 1 3420.97 1836)">eth0</text><path d="M3107 1916.83C3107 1911.95 3110.96 1908 3115.83 1908L3244.17 1908C3249.05 1908 3253 1911.95 3253 1916.83L3253 1952.17C3253 1957.05 3249.05 1961 3244.17 1961L3115.83 1961C3110.96 1961 3107 1957.05 3107 1952.17Z" stroke="#042433" stroke-width="2.29167" stroke-miterlimit="8" fill="#FFFFFF" fill-rule="evenodd"/><text font-family="Aptos,Aptos_MSFontService,sans-serif" font-weight="400" font-size="37" transform="matrix(1 0 0 1 3109.59 1946)">dummy0</text><path d="M3108 2014.83C3108 2009.96 3111.95 2006 3116.83 2006L3246.17 2006C3251.04 2006 3255 2009.96 3255 2014.83L3255 2050.17C3255 2055.05 3251.04 2059 3246.17 2059L3116.83 2059C3111.95 2059 3108 2055.05 3108 2050.17Z" stroke="#042433" stroke-width="2.29167" stroke-miterlimit="8" fill="#FFFFFF" fill-rule="evenodd"/><text font-family="Aptos,Aptos_MSFontService,sans-serif" font-weight="400" font-size="37" transform="matrix(1 0 0 1 3132.79 2044)">shim0</text><path d="M3106.41 1751.58 3076.91 1751.33 3076.93 1749.04 3106.43 1749.29ZM3081.39 1763.98 3054 1750 3081.61 1736.48Z"/><path d="M1.14583-7.29078e-06 1.14605 33.8019-1.14562 33.8019-1.14583 7.29078e-06ZM13.7502 29.2185 0.000360892 56.7186-13.7498 29.2187Z" transform="matrix(1 0 0 -1 3180 1907.72)"/><path d="M3180.57 2005.73 3179.74 1983.94 3182.03 1983.86 3182.86 2005.64ZM3167.32 1989.01 3180 1961 3194.8 1987.95Z"/><path d="M3590 1749.83C3590 1739.43 3598.43 1731 3608.83 1731L3758.17 1731C3768.57 1731 3777 1739.43 3777 1749.83L3777 1825.17C3777 1835.57 3768.57 1844 3758.17 1844L3608.83 1844C3598.43 1844 3590 1835.57 3590 1825.17Z" stroke="#042433" stroke-width="2.29167" stroke-miterlimit="8" fill="#FFFFFF" fill-rule="evenodd" fill-opacity="0.521569"/><text font-family="Aptos,Aptos_MSFontService,sans-serif" font-weight="700" font-size="37" transform="matrix(1 0 0 1 3634.37 1799)">APP A</text><path d="M3564 1833.83C3564 1828.95 3567.95 1825 3572.83 1825L3656.17 1825C3661.05 1825 3665 1828.95 3665 1833.83L3665 1869.17C3665 1874.05 3661.05 1878 3656.17 1878L3572.83 1878C3567.95 1878 3564 1874.05 3564 1869.17Z" stroke="#042433" stroke-width="2.29167" stroke-miterlimit="8" fill="#FFFFFF" fill-rule="evenodd"/><text font-family="Aptos,Aptos_MSFontService,sans-serif" font-weight="400" font-size="37" transform="matrix(1 0 0 1 3579.09 1864)">eth0</text><path d="M3509 2014.83C3509 2009.95 3512.95 2006 3517.83 2006L3718.17 2006C3723.04 2006 3727 2009.95 3727 2014.83L3727 2050.17C3727 2055.05 3723.04 2059 3718.17 2059L3517.83 2059C3512.95 2059 3509 2055.05 3509 2050.17Z" stroke="#042433" stroke-width="2.29167" stroke-miterlimit="8" fill="#FFFFFF" fill-rule="evenodd"/><text font-family="Aptos,Aptos_MSFontService,sans-serif" font-weight="400" font-size="37" transform="matrix(1 0 0 1 3516.93 2044)">Calico App A</text><path d="M3616.15 1877.97 3618.96 1982.25 3616.67 1982.31 3613.85 1878.03ZM3631.44 1977.33 3618.44 2005.19 3603.95 1978.07Z"/><path d="M2801 2050.33C2801 2042.42 2807.42 2036 2815.33 2036L2946.67 2036C2954.58 2036 2961 2042.42 2961 2050.33L2961 2107.67C2961 2115.58 2954.58 2122 2946.67 2122L2815.33 2122C2807.42 2122 2801 2115.58 2801 2107.67Z" stroke="#042433" stroke-width="2.29167" stroke-miterlimit="8" fill="#595959" fill-rule="evenodd"/><text fill="#FFFFFF" font-family="Aptos,Aptos_MSFontService,sans-serif" font-weight="400" font-size="41" transform="matrix(1 0 0 1 2832.87 2093)">VSI C</text><path d="M3228.5 1714.5C3228.5 1705.11 3236.33 1697.5 3246 1697.5 3255.67 1697.5 3263.5 1705.11 3263.5 1714.5 3263.5 1723.89 3255.67 1731.5 3246 1731.5 3236.33 1731.5 3228.5 1723.89 3228.5 1714.5Z" stroke="#FF0000" stroke-width="6.875" stroke-miterlimit="8" fill="#C00000" fill-rule="evenodd"/><text fill="#C00000" font-family="Aptos,Aptos_MSFontService,sans-serif" font-weight="700" font-size="48" transform="matrix(1 0 0 1 3281.09 1702)">Self IP Next Hop</text><text font-family="Aptos,Aptos_MSFontService,sans-serif" font-weight="700" font-size="28" transform="matrix(1 0 0 1 3006.09 1802)">IPVLAN</text><text font-family="Aptos,Aptos_MSFontService,sans-serif" font-weight="700" font-size="28" transform="matrix(1 0 0 1 3210.05 1889)">MACVLAN</text><text font-family="Aptos,Aptos_MSFontService,sans-serif" font-weight="700" font-size="28" transform="matrix(1 0 0 1 2818.87 1809)">VPC Single</text><text font-family="Aptos,Aptos_MSFontService,sans-serif" font-weight="700" font-size="28" transform="matrix(1 0 0 1 2818.87 1842)">NIC Subnet</text><text font-family="Aptos,Aptos_MSFontService,sans-serif" font-weight="700" font-size="28" transform="matrix(1 0 0 1 2818.87 1875)">Address</text><path d="M2917.5 1748C2917.5 1738.33 2925.33 1730.5 2935 1730.5 2944.67 1730.5 2952.5 1738.33 2952.5 1748 2952.5 1757.66 2944.67 1765.5 2935 1765.5 2925.33 1765.5 2917.5 1757.66 2917.5 1748Z" stroke="#000000" stroke-width="6.875" stroke-miterlimit="8" fill="#F2F2F2" fill-rule="evenodd"/><path d="M2717.42 1745.06 2895.33 1745.06 2895.33 1751.94 2717.42 1751.94ZM2722 1762.25 2694.5 1748.5 2722 1734.75ZM2890.74 1734.75 2918.24 1748.5 2890.74 1762.25Z"/><text font-family="Aptos,Aptos_MSFontService,sans-serif" font-weight="700" font-size="46" transform="matrix(1 0 0 1 3344.96 2115)">f5</text><text font-family="Aptos,Aptos_MSFontService,sans-serif" font-weight="700" font-size="46" transform="matrix(1 0 0 1 3385.06 2115)">-</text><text font-family="Aptos,Aptos_MSFontService,sans-serif" font-weight="700" font-size="46" transform="matrix(1 0 0 1 3400.53 2115)">tmm</text><path d="M2389.5 1748C2389.5 1663.78 2457.78 1595.5 2542 1595.5 2626.22 1595.5 2694.5 1663.78 2694.5 1748 2694.5 1832.22 2626.22 1900.5 2542 1900.5 2457.78 1900.5 2389.5 1832.22 2389.5 1748Z" stroke="#042433" stroke-width="6.875" stroke-miterlimit="8" fill="#D9D9D9" fill-rule="evenodd"/><text font-family="Aptos,Aptos_MSFontService,sans-serif" font-weight="400" font-size="64" transform="matrix(1 0 0 1 2481.44 1730)">VPC</text><text font-family="Aptos,Aptos_MSFontService,sans-serif" font-weight="400" font-size="64" transform="matrix(1 0 0 1 2448.37 1807)">Router</text><path d="M1896.5 1073.5C1896.5 982.373 1970.37 908.5 2061.5 908.5 2152.63 908.5 2226.5 982.373 2226.5 1073.5 2226.5 1164.63 2152.63 1238.5 2061.5 1238.5 1970.37 1238.5 1896.5 1164.63 1896.5 1073.5Z" stroke="#042433" stroke-width="6.875" stroke-miterlimit="8" fill="#D9D9D9" fill-rule="evenodd"/><text font-family="Aptos,Aptos_MSFontService,sans-serif" font-weight="700" font-size="64" transform="matrix(1 0 0 1 1993.06 1093)">TGW</text><path d="M3.20753-1.23618 205.903 524.699 199.488 527.172-3.20753 1.23618ZM213.877 516.714 210.936 547.319 188.217 526.603Z" transform="matrix(1 0 0 -1 2178.5 956.818)"/><path d="M2226.62 1070.06 2366.32 1074.85 2366.09 1081.72 2226.38 1076.94ZM2362.1 1064.39 2389.11 1079.07 2361.15 1091.87Z"/><path d="M2181.72 1188.29 2384.55 1725.31 2378.12 1727.74 2175.28 1190.71ZM2392.58 1717.38 2389.44 1747.97 2366.86 1727.1Z"/><path d="M1545.5 1070.06 1874.1 1070.06 1874.1 1076.94 1545.5 1076.94ZM1869.52 1059.75 1897.02 1073.5 1869.52 1087.25Z"/><path d="M1105.5 933.933C1105.5 920.439 1116.44 909.5 1129.93 909.5L1521.07 909.5C1534.56 909.5 1545.5 920.439 1545.5 933.933L1545.5 1212.07C1545.5 1225.56 1534.56 1236.5 1521.07 1236.5L1129.93 1236.5C1116.44 1236.5 1105.5 1225.56 1105.5 1212.07Z" stroke="#042433" stroke-width="6.875" stroke-miterlimit="8" fill="#F2AA84" fill-rule="evenodd"/><text font-family="Aptos,Aptos_MSFontService,sans-serif" font-weight="700" font-size="50" transform="matrix(1 0 0 1 1162.19 979)">Test Client VPC</text><path d="M1237.5 1037.67C1237.5 1021.01 1251.01 1007.5 1267.67 1007.5L1391.33 1007.5C1407.99 1007.5 1421.5 1021.01 1421.5 1037.67L1421.5 1158.33C1421.5 1174.99 1407.99 1188.5 1391.33 1188.5L1267.67 1188.5C1251.01 1188.5 1237.5 1174.99 1237.5 1158.33Z" stroke="#042433" stroke-width="6.875" stroke-miterlimit="8" fill="#FFFFFF" fill-rule="evenodd"/><g><g><g><path d="M79.66 70.6851C84.5517 71.5595 89.3515 72.8863 93.9979 74.6479 94.8789 75.0033 95.881 74.5771 96.2363 73.6961 96.5917 72.8151 96.1655 71.813 95.2845 71.4577 95.2618 71.4484 95.2387 71.4398 95.2157 71.4315 91.2845 69.9448 87.2487 68.7514 83.1413 67.8608 90.8252 59.8229 94.98 49.0489 94.6825 37.9329 94.6825 19.8385 84.5895 9.45999 66.9939 9.45999 49.3984 9.45999 39.3054 19.8385 39.3054 37.9329 39.0075 49.0482 43.161 59.8222 50.8432 67.8608 42.516 69.6077 34.5187 72.6637 27.1485 76.9149 23.3708 79.2603 20.5999 82.9263 19.3741 87.2005L10.265 127.755C10.0524 128.68 10.6307 129.603 11.5565 129.816 11.5606 129.817 11.5646 129.818 11.5687 129.819 11.693 129.846 11.8199 129.86 11.9471 129.86 12.7513 129.858 13.4471 129.3 13.6224 128.515L22.704 88.0639C23.7052 84.6439 25.9349 81.7147 28.9648 79.8389 36.8104 75.3717 45.3612 72.2771 54.2488 70.6885 61.751 76.4171 72.1591 76.4158 79.66 70.6851ZM42.7454 37.9225C42.7454 16.1405 57.9399 12.8897 66.9939 12.8897 76.048 12.8897 91.2425 16.1405 91.2425 37.9225 91.2425 50.3065 86.2992 61.6069 78.3391 67.4515L78.2909 67.4893C71.735 72.9238 62.2392 72.9238 55.6832 67.4893L55.6832 67.4893C47.7024 61.6413 42.7454 50.3168 42.7454 37.9225Z" transform="matrix(1 0 0 1 1244 1010)"/><path d="M111.428 65.016 111.428 65.016C113.47 66.6407 115.988 67.5516 118.597 67.6097 120.921 67.5564 123.175 66.8103 125.071 65.4666 129.289 66.2729 133.343 67.7762 137.067 69.9145 138.366 70.7322 139.33 71.9878 139.784 73.4543L140.885 79.089C141.048 79.8898 141.753 80.465 142.571 80.465 142.686 80.467 142.801 80.4578 142.915 80.4375 143.849 80.2648 144.466 79.3676 144.294 78.4337 144.293 78.4285 144.292 78.4233 144.291 78.4182L143.156 72.639C142.49 70.3036 140.989 68.2943 138.938 66.9939 135.609 65.038 132.018 63.5667 128.274 62.6252 131.614 58.4631 133.389 53.2615 133.29 47.926 133.29 38.2081 127.951 32.6353 118.635 32.6353 109.32 32.6353 103.981 38.2081 103.981 47.926 103.713 54.4631 106.458 60.7617 111.428 65.016ZM118.604 36.0959C123.72 36.0959 129.819 38.1599 129.819 47.9467 130.077 53.3998 127.831 58.6723 123.72 62.264 120.783 64.8023 116.429 64.8023 113.492 62.264L113.492 62.264C109.38 58.6729 107.133 53.4005 107.39 47.9467 107.39 38.153 113.489 36.0959 118.604 36.0959Z" transform="matrix(1 0 0 1 1244 1010)"/><path d="M110.042 153.555 93.3718 153.555C92.4221 153.555 91.6518 154.325 91.6518 155.275 91.6518 156.224 92.4221 156.995 93.3718 156.995L110.042 156.995C110.992 156.995 111.762 156.224 111.762 155.275 111.762 154.325 110.992 153.555 110.042 153.555Z" transform="matrix(1 0 0 1 1244 1010)"/><path d="M158.997 148.866 158.997 88.5903C158.997 87.6405 158.226 86.8703 157.277 86.8703L46.1372 86.8703C45.1875 86.8703 44.4172 87.6405 44.4172 88.5903L44.4172 148.866C42.5779 150.478 41.5576 152.83 41.6377 155.275 41.5184 158.114 42.916 160.803 45.3082 162.337 45.5628 162.476 45.8476 162.549 46.1372 162.55L157.277 162.55C157.566 162.549 157.852 162.476 158.106 162.337 160.498 160.803 161.896 158.114 161.776 155.275 161.856 152.83 160.836 150.478 158.997 148.866ZM155.557 90.3103 155.557 147.992 47.8572 147.992 47.8572 90.3103ZM156.733 159.11 46.6808 159.11C44.5604 157.009 44.5445 153.588 46.6453 151.468 46.657 151.456 46.6691 151.444 46.6808 151.432L156.733 151.432C158.853 153.527 158.874 156.945 156.778 159.065 156.763 159.08 156.748 159.095 156.733 159.11Z" transform="matrix(1 0 0 1 1244 1010)"/><path d="M89.5122 132.196C89.7777 132.356 90.0825 132.441 90.3928 132.44 91.3426 132.44 92.1132 131.67 92.1135 130.721 92.1135 130.115 91.796 129.555 91.2769 129.244L74.8922 119.45 91.2803 109.65C92.1125 109.192 92.4155 108.146 91.9573 107.313 91.4988 106.481 90.453 106.178 89.6209 106.637 89.5837 106.657 89.5476 106.679 89.5122 106.702L70.6575 117.992C69.8433 118.481 69.5805 119.538 70.07 120.352 70.2148 120.593 70.4164 120.795 70.6575 120.94Z" transform="matrix(1 0 0 1 1244 1010)"/><path d="M111.542 131.604C111.853 132.124 112.415 132.441 113.021 132.44 113.332 132.442 113.637 132.357 113.902 132.196L132.756 120.923C133.571 120.433 133.833 119.377 133.344 118.562 133.199 118.321 132.998 118.12 132.756 117.975L113.902 106.702C113.112 106.175 112.043 106.388 111.516 107.178 110.989 107.969 111.203 109.037 111.993 109.564 112.04 109.595 112.087 109.623 112.137 109.65L128.522 119.45 112.144 129.244C111.327 129.728 111.056 130.783 111.54 131.601 111.541 131.602 111.541 131.603 111.542 131.604Z" transform="matrix(1 0 0 1 1244 1010)"/><path d="M97.3932 132.354C97.5686 132.411 97.752 132.44 97.9367 132.44 98.6767 132.439 99.3334 131.966 99.5673 131.263L107.108 108.704C107.442 107.815 106.993 106.823 106.103 106.489 105.214 106.154 104.222 106.604 103.888 107.493 103.872 107.534 103.859 107.575 103.847 107.617L96.3199 130.176C96.0169 131.074 96.4967 132.047 97.3932 132.354Z" transform="matrix(1 0 0 1 1244 1010)"/></g></g></g><path d="M2782.5 674.501C2782.5 667.321 2788.32 661.5 2795.5 661.5L3021.5 661.5C3028.68 661.5 3034.5 667.321 3034.5 674.501L3034.5 822.499C3034.5 829.679 3028.68 835.5 3021.5 835.5L2795.5 835.5C2788.32 835.5 2782.5 829.679 2782.5 822.499Z" stroke="#042433" stroke-width="6.875" stroke-miterlimit="8" fill="#A6CAEC" fill-rule="evenodd"/><text font-family="Aptos,Aptos_MSFontService,sans-serif" font-weight="700" font-size="23" transform="matrix(1 0 0 1 2829.25 702)">Test Client VPC</text><path d="M2858.5 729.667C2858.5 720.738 2865.74 713.5 2874.67 713.5L2947.33 713.5C2956.26 713.5 2963.5 720.738 2963.5 729.667L2963.5 794.333C2963.5 803.262 2956.26 810.5 2947.33 810.5L2874.67 810.5C2865.74 810.5 2858.5 803.262 2858.5 794.333Z" stroke="#042433" stroke-width="6.875" stroke-miterlimit="8" fill="#FFFFFF" fill-rule="evenodd"/><g><g><g><path d="M42.6089 37.8084C45.2254 38.2761 47.7928 38.9858 50.2781 39.9281 50.7493 40.1181 51.2853 39.8902 51.4754 39.4189 51.6654 38.9477 51.4375 38.4117 50.9662 38.2216 50.9541 38.2167 50.9418 38.2121 50.9294 38.2077 48.8267 37.4124 46.668 36.7741 44.471 36.2977 48.581 31.9984 50.8034 26.2355 50.6442 20.2897 50.6442 10.6113 45.2457 5.06001 35.8341 5.06001 26.4224 5.06001 21.0239 10.6113 21.0239 20.2897 20.8645 26.2351 23.0861 31.998 27.1952 36.2977 22.7411 37.2321 18.4635 38.8667 14.5213 41.1406 12.5007 42.3951 11.0186 44.356 10.3629 46.6422L5.49057 68.334C5.37687 68.8292 5.68618 69.3228 6.1814 69.4366 6.18357 69.4371 6.18574 69.4375 6.18793 69.438 6.25441 69.4526 6.32227 69.4601 6.39033 69.4601 6.82049 69.4592 7.19264 69.1605 7.28641 68.7407L12.144 47.1041C12.6796 45.2747 13.8722 43.708 15.4928 42.7046 19.6893 40.3152 24.263 38.6599 29.0168 37.8102 33.0297 40.8744 38.5968 40.8736 42.6089 37.8084ZM22.8639 20.2842C22.8639 8.63329 30.9912 6.89449 35.8341 6.89449 40.6769 6.89449 48.8042 8.63329 48.8042 20.2842 48.8042 26.9082 46.1601 32.9526 41.9024 36.0788L41.8766 36.099C38.3699 39.0058 33.2908 39.0058 29.7841 36.099L29.7841 36.099C25.5153 32.971 22.8639 26.9137 22.8639 20.2842Z" transform="matrix(1.06522 0 0 1 2862 715)"/><path d="M59.6014 34.7761 59.6014 34.7761C60.6936 35.6451 62.0405 36.1323 63.4359 36.1634 64.6787 36.1349 65.8846 35.7358 66.8988 35.0171 69.1547 35.4484 71.3231 36.2525 73.3149 37.3962 74.0099 37.8336 74.5256 38.5052 74.7685 39.2896L75.3573 42.3035C75.4447 42.7319 75.8217 43.0395 76.2589 43.0395 76.3205 43.0406 76.3822 43.0356 76.4429 43.0248 76.9427 42.9324 77.2728 42.4525 77.1806 41.953 77.18 41.9502 77.1795 41.9475 77.1789 41.9447L76.5717 38.8535C76.2159 37.6043 75.4129 36.5296 74.3159 35.8341 72.5353 34.7878 70.6147 34.0009 68.6119 33.4972 70.3983 31.271 71.3478 28.4888 71.2946 25.6349 71.2946 20.4369 68.4389 17.4561 63.4562 17.4561 58.4734 17.4561 55.6178 20.4369 55.6178 25.6349 55.4746 29.1315 56.9427 32.5005 59.6014 34.7761ZM63.4396 19.3071C66.1757 19.3071 69.438 20.4111 69.438 25.646 69.5762 28.5627 68.3747 31.3829 66.1757 33.3041 64.6051 34.6618 62.276 34.6618 60.7054 33.3041L60.7054 33.3041C58.5056 31.3833 57.3036 28.5631 57.4412 25.646 57.4412 20.4075 60.7035 19.3071 63.4396 19.3071Z" transform="matrix(1.06522 0 0 1 2862 715)"/><path d="M58.8598 82.134 49.9432 82.134C49.4352 82.134 49.0232 82.546 49.0232 83.054 49.0232 83.5621 49.4352 83.974 49.9432 83.974L58.8598 83.974C59.3679 83.974 59.7798 83.5621 59.7798 83.054 59.7798 82.546 59.3679 82.134 58.8598 82.134Z" transform="matrix(1.06522 0 0 1 2862 715)"/><path d="M85.0449 79.6261 85.0449 47.3856C85.0449 46.8776 84.6329 46.4656 84.1249 46.4656L24.6781 46.4656C24.1701 46.4656 23.7581 46.8776 23.7581 47.3856L23.7581 79.6261C22.7743 80.4885 22.2285 81.7463 22.2714 83.054 22.2075 84.5728 22.9551 86.0111 24.2347 86.8316 24.3708 86.9057 24.5232 86.9449 24.6781 86.9456L84.1249 86.9456C84.2798 86.9449 84.4324 86.9057 84.5684 86.8316 85.8479 86.0111 86.5955 84.5728 86.5316 83.054 86.5745 81.7463 86.0288 80.4885 85.0449 79.6261ZM83.2049 48.3056 83.2049 79.1588 25.5981 79.1588 25.5981 48.3056ZM83.8342 85.1056 24.9688 85.1056C23.8347 83.9819 23.8262 82.1517 24.9499 81.0177 24.9561 81.0113 24.9626 81.005 24.9688 80.9988L83.8342 80.9988C84.9682 82.1195 84.979 83.9474 83.8583 85.0815 83.8504 85.0896 83.8423 85.0975 83.8342 85.1056Z" transform="matrix(1.06522 0 0 1 2862 715)"/><path d="M47.8787 70.7095C48.0208 70.7954 48.1838 70.8407 48.3498 70.8401 48.8578 70.8403 49.2699 70.4285 49.2701 69.9205 49.2701 69.5968 49.1003 69.2969 48.8226 69.1307L40.0587 63.8923 48.8245 58.6501C49.2696 58.405 49.4317 57.8455 49.1866 57.4004 48.9413 56.9553 48.382 56.7932 47.9369 57.0384 47.917 57.0493 47.8977 57.0609 47.8787 57.0732L37.7937 63.1121C37.3581 63.3739 37.2175 63.9392 37.4794 64.3747 37.5568 64.5035 37.6647 64.6115 37.7937 64.689Z" transform="matrix(1.06522 0 0 1 2862 715)"/><path d="M59.6621 70.393C59.8286 70.671 60.1293 70.8408 60.4533 70.8401 60.6194 70.841 60.7825 70.7958 60.9243 70.7095L71.0094 64.6798C71.4449 64.4179 71.5855 63.8527 71.3237 63.4172 71.2462 63.2884 71.1384 63.1804 71.0094 63.1029L60.9243 57.0732C60.5017 56.7913 59.9304 56.9054 59.6485 57.328 59.3666 57.7509 59.4807 58.322 59.9033 58.6039 59.9283 58.6206 59.9539 58.6359 59.9804 58.6501L68.7443 63.8923 59.9841 69.1307C59.5469 69.3895 59.4021 69.9538 59.661 70.3911 59.6613 70.3917 59.6617 70.3924 59.6621 70.393Z" transform="matrix(1.06522 0 0 1 2862 715)"/><path d="M52.0942 70.7941C52.188 70.8248 52.2861 70.8403 52.3849 70.8401 52.7807 70.8397 53.1319 70.5864 53.257 70.2108L57.2903 58.1441C57.4692 57.6684 57.2287 57.138 56.753 56.9591 56.2774 56.7803 55.7469 57.0208 55.5681 57.4964 55.5598 57.5181 55.5524 57.5404 55.546 57.5626L51.5201 69.6294C51.358 70.1094 51.6147 70.6302 52.0942 70.7941Z" transform="matrix(1.06522 0 0 1 2862 715)"/></g></g></g><path d="M2782.5 1338.5C2782.5 1331.32 2788.32 1325.5 2795.5 1325.5L3021.5 1325.5C3028.68 1325.5 3034.5 1331.32 3034.5 1338.5L3034.5 1486.5C3034.5 1493.68 3028.68 1499.5 3021.5 1499.5L2795.5 1499.5C2788.32 1499.5 2782.5 1493.68 2782.5 1486.5Z" stroke="#042433" stroke-width="6.875" stroke-miterlimit="8" fill="#A6CAEC" fill-rule="evenodd"/><text font-family="Aptos,Aptos_MSFontService,sans-serif" font-weight="700" font-size="23" transform="matrix(1 0 0 1 2829.25 1366)">Test Client VPC</text><path d="M2858.5 1393.5C2858.5 1384.66 2865.66 1377.5 2874.5 1377.5L2947.5 1377.5C2956.34 1377.5 2963.5 1384.66 2963.5 1393.5L2963.5 1457.5C2963.5 1466.34 2956.34 1473.5 2947.5 1473.5L2874.5 1473.5C2865.66 1473.5 2858.5 1466.34 2858.5 1457.5Z" stroke="#042433" stroke-width="6.875" stroke-miterlimit="8" fill="#FFFFFF" fill-rule="evenodd"/><g><g><g><path d="M42.1456 37.3973C44.7337 37.8599 47.2731 38.5619 49.7314 39.4939 50.1975 39.6819 50.7276 39.4564 50.9156 38.9903 51.1036 38.5242 50.8781 37.994 50.412 37.806 50.4 37.8011 50.3878 37.7966 50.3756 37.7922 48.2957 37.0056 46.1605 36.3742 43.9875 35.903 48.0528 31.6504 50.251 25.9502 50.0935 20.0691 50.0935 10.4959 44.7537 5.00499 35.4444 5.00499 26.1351 5.00499 20.7953 10.4959 20.7953 20.0691 20.6376 25.9499 22.8351 31.6501 26.8995 35.903 22.4939 36.8272 18.2627 38.4441 14.3634 40.6933 12.3648 41.9341 10.8987 43.8737 10.2502 46.1351L5.43086 67.591C5.31841 68.0807 5.62435 68.569 6.11418 68.6815 6.11633 68.6821 6.11848 68.6824 6.12064 68.683 6.1864 68.6973 6.25352 68.7048 6.32084 68.7048 6.74632 68.7039 7.11443 68.4085 7.20718 67.9932L12.012 46.5919C12.5417 44.7824 13.7214 43.2327 15.3244 42.2403 19.4752 39.8768 23.9992 38.2395 28.7013 37.3991 32.6705 40.4299 38.1771 40.4292 42.1456 37.3973ZM22.6153 20.0636C22.6153 8.53942 30.6542 6.81952 35.4444 6.81952 40.2346 6.81952 48.2735 8.53942 48.2735 20.0636 48.2735 26.6156 45.6582 32.5943 41.4467 35.6865L41.4213 35.7065C37.9527 38.5817 32.9288 38.5817 29.4603 35.7065L29.4603 35.7065C25.2379 32.6125 22.6153 26.6211 22.6153 20.0636Z" transform="matrix(1.07693 0 0 1 2862 1379)"/><path d="M58.9533 34.3979 58.9533 34.3979C60.0336 35.2575 61.3659 35.7394 62.7461 35.7702 63.9754 35.742 65.1682 35.3472 66.1714 34.6363 68.4027 35.0629 70.5475 35.8583 72.5177 36.9896 73.2051 37.4222 73.7152 38.0865 73.9555 38.8624L74.5379 41.8435C74.6243 42.2672 74.9973 42.5715 75.4297 42.5715 75.4907 42.5726 75.5516 42.5677 75.6117 42.5569 76.106 42.4656 76.4325 41.9909 76.3413 41.4968 76.3408 41.4941 76.3402 41.4913 76.3397 41.4886L75.7391 38.431C75.3871 37.1954 74.5928 36.1324 73.5078 35.4444 71.7466 34.4095 69.8468 33.6311 67.8658 33.133 69.6328 30.931 70.5719 28.179 70.5193 25.3562 70.5193 20.2147 67.6947 17.2663 62.7662 17.2663 57.8376 17.2663 55.013 20.2147 55.013 25.3562 54.8714 28.8147 56.3236 32.1471 58.9533 34.3979ZM62.7498 19.0972C65.4561 19.0972 68.683 20.1892 68.683 25.3671 68.8196 28.2521 67.6312 31.0417 65.4561 32.9419 63.9026 34.2849 61.5988 34.2849 60.0453 32.9419L60.0453 32.9419C57.8695 31.042 56.6805 28.2525 56.8166 25.3671 56.8166 20.1856 60.0434 19.0972 62.7498 19.0972Z" transform="matrix(1.07693 0 0 1 2862 1379)"/><path d="M58.2198 81.2409 49.4001 81.2409C48.8976 81.2409 48.4901 81.6484 48.4901 82.1509 48.4901 82.6534 48.8976 83.0609 49.4001 83.0609L58.2198 83.0609C58.7223 83.0609 59.1298 82.6534 59.1298 82.1509 59.1298 81.6484 58.7223 81.2409 58.2198 81.2409Z" transform="matrix(1.07693 0 0 1 2862 1379)"/><path d="M84.1202 78.7603 84.1202 46.8703C84.1202 46.3678 83.7127 45.9603 83.2102 45.9603L24.4098 45.9603C23.9073 45.9603 23.4998 46.3678 23.4998 46.8703L23.4998 78.7603C22.5266 79.6133 21.9868 80.8575 22.0292 82.1509 21.9661 83.6532 22.7055 85.0758 23.9712 85.8874 24.1058 85.9607 24.2565 85.9995 24.4098 86.0002L83.2102 86.0002C83.3634 85.9995 83.5143 85.9607 83.6488 85.8874 84.9144 85.0758 85.6539 83.6532 85.5907 82.1509 85.6331 80.8575 85.0933 79.6133 84.1202 78.7603ZM82.3002 47.7803 82.3002 78.298 25.3198 78.298 25.3198 47.7803ZM82.9226 84.1802 24.6973 84.1802C23.5755 83.0687 23.5671 81.2584 24.6786 80.1367 24.6848 80.1304 24.6911 80.1242 24.6973 80.118L82.9226 80.118C84.0443 81.2265 84.055 83.0345 82.9464 84.1564 82.9386 84.1644 82.9306 84.1722 82.9226 84.1802Z" transform="matrix(1.07693 0 0 1 2862 1379)"/><path d="M47.3581 69.9406C47.4986 70.0256 47.6598 70.0704 47.824 70.0698 48.3265 70.07 48.7342 69.6627 48.7344 69.1602 48.7344 68.84 48.5664 68.5434 48.2917 68.379L39.6231 63.1975 48.2936 58.0123C48.7338 57.7699 48.8942 57.2164 48.6517 56.7762 48.4091 56.3359 47.8559 56.1756 47.4156 56.4182 47.3959 56.4289 47.3768 56.4404 47.3581 56.4526L37.3827 62.4258C36.9519 62.6848 36.8129 63.2439 37.0718 63.6747 37.1485 63.8021 37.2551 63.9089 37.3827 63.9856Z" transform="matrix(1.07693 0 0 1 2862 1379)"/><path d="M59.0133 69.6275C59.178 69.9025 59.4754 70.0705 59.7959 70.0698 59.9603 70.0707 60.1215 70.0259 60.2618 69.9406L70.2372 63.9765C70.668 63.7175 70.8071 63.1584 70.5481 62.7276 70.4715 62.6002 70.3648 62.4933 70.2372 62.4167L60.2618 56.4526C59.8438 56.1738 59.2787 56.2866 58.9999 56.7047 58.721 57.1229 58.8339 57.6878 59.2519 57.9667 59.2767 57.9832 59.302 57.9983 59.3282 58.0123L67.9968 63.1975 59.3318 68.379C58.8994 68.6349 58.7562 69.1931 59.0122 69.6257 59.0126 69.6263 59.013 69.627 59.0133 69.6275Z" transform="matrix(1.07693 0 0 1 2862 1379)"/><path d="M51.5277 70.0243C51.6205 70.0547 51.7175 70.07 51.8153 70.0698 52.2067 70.0694 52.5542 69.8188 52.6779 69.4474L56.6674 57.5118C56.8443 57.0414 56.6064 56.5167 56.1359 56.3398 55.6655 56.1629 55.1407 56.4007 54.9638 56.8712 54.9557 56.8927 54.9484 56.9147 54.942 56.9367L50.9599 68.8722C50.7995 69.3471 51.0534 69.8621 51.5277 70.0243Z" transform="matrix(1.07693 0 0 1 2862 1379)"/></g></g></g><path d="M2782.5 2005.5C2782.5 1998.32 2788.32 1992.5 2795.5 1992.5L3021.5 1992.5C3028.68 1992.5 3034.5 1998.32 3034.5 2005.5L3034.5 2153.5C3034.5 2160.68 3028.68 2166.5 3021.5 2166.5L2795.5 2166.5C2788.32 2166.5 2782.5 2160.68 2782.5 2153.5Z" stroke="#042433" stroke-width="6.875" stroke-miterlimit="8" fill="#A6CAEC" fill-rule="evenodd"/><text font-family="Aptos,Aptos_MSFontService,sans-serif" font-weight="700" font-size="23" transform="matrix(1 0 0 1 2829.25 2033)">Test Client VPC</text><path d="M2858.5 2060.5C2858.5 2051.66 2865.66 2044.5 2874.5 2044.5L2947.5 2044.5C2956.34 2044.5 2963.5 2051.66 2963.5 2060.5L2963.5 2124.5C2963.5 2133.34 2956.34 2140.5 2947.5 2140.5L2874.5 2140.5C2865.66 2140.5 2858.5 2133.34 2858.5 2124.5Z" stroke="#042433" stroke-width="6.875" stroke-miterlimit="8" fill="#FFFFFF" fill-rule="evenodd"/><g><g><g><path d="M42.1458 37.3974C44.7338 37.86 47.2733 38.562 49.7316 39.494 50.1977 39.682 50.7278 39.4566 50.9158 38.9904 51.1038 38.5243 50.8783 37.9942 50.4122 37.8062 50.4002 37.8013 50.388 37.7967 50.3758 37.7923 48.2959 37.0057 46.1607 36.3744 43.9876 35.9032 48.053 31.6506 50.2512 25.9503 50.0937 20.0692 50.0937 10.496 44.7538 5.00501 35.4445 5.00501 26.1352 5.00501 20.7953 10.496 20.7953 20.0692 20.6377 25.95 22.8352 31.6502 26.8996 35.9032 22.4939 36.8274 18.2628 38.4443 14.3635 40.6934 12.3648 41.9343 10.8988 43.8739 10.2503 46.1352L5.43089 67.5912C5.31843 68.081 5.62437 68.5693 6.11421 68.6818 6.11635 68.6823 6.1185 68.6827 6.12067 68.6832 6.18642 68.6976 6.25354 68.7051 6.32087 68.7051 6.74635 68.7042 7.11446 68.4088 7.20721 67.9935L12.012 46.5921C12.5417 44.7826 13.7214 43.2329 15.3244 42.2404 19.4753 39.877 23.9993 38.2397 28.7014 37.3992 32.6707 40.4301 38.1773 40.4293 42.1458 37.3974ZM22.6153 20.0637C22.6153 8.53945 30.6543 6.81955 35.4445 6.81955 40.2348 6.81955 48.2737 8.53945 48.2737 20.0637 48.2737 26.6157 45.6584 32.5944 41.4469 35.6866L41.4214 35.7066C37.9529 38.5819 32.9289 38.5819 29.4604 35.7066L29.4604 35.7066C25.238 32.6126 22.6153 26.6212 22.6153 20.0637Z" transform="matrix(1.07692 0 0 1 2862 2046)"/><path d="M58.9535 34.398 58.9535 34.398C60.0339 35.2576 61.3661 35.7396 62.7464 35.7703 63.9756 35.7421 65.1684 35.3474 66.1716 34.6365 68.403 35.0631 70.5478 35.8584 72.518 36.9897 73.2054 37.4223 73.7155 38.0866 73.9558 38.8625L74.5382 41.8437C74.6246 42.2674 74.9976 42.5717 75.43 42.5717 75.491 42.5728 75.5519 42.5678 75.612 42.5571 76.1063 42.4657 76.4328 41.9911 76.3416 41.497 76.3411 41.4942 76.3405 41.4915 76.34 41.4888L75.7394 38.4312C75.3874 37.1956 74.5931 36.1325 73.5081 35.4445 71.7468 34.4097 69.8471 33.6313 67.8661 33.1331 69.6331 30.9311 70.5722 28.1791 70.5196 25.3563 70.5196 20.2148 67.695 17.2664 62.7664 17.2664 57.8378 17.2664 55.0132 20.2148 55.0132 25.3563 54.8716 28.8148 56.3238 32.1472 58.9535 34.398ZM62.75 19.0973C65.4564 19.0973 68.6832 20.1893 68.6832 25.3672 68.8199 28.2523 67.6315 31.0418 65.4564 32.942 63.9028 34.285 61.5991 34.285 60.0455 32.942L60.0455 32.942C57.8697 31.0421 56.6807 28.2526 56.8168 25.3672 56.8168 20.1856 60.0437 19.0973 62.75 19.0973Z" transform="matrix(1.07692 0 0 1 2862 2046)"/><path d="M58.22 81.2412 49.4003 81.2412C48.8978 81.2412 48.4903 81.6488 48.4903 82.1513 48.4903 82.6538 48.8978 83.0612 49.4003 83.0612L58.22 83.0612C58.7225 83.0612 59.13 82.6538 59.13 82.1513 59.13 81.6488 58.7225 81.2412 58.22 81.2412Z" transform="matrix(1.07692 0 0 1 2862 2046)"/><path d="M84.1205 78.7606 84.1205 46.8705C84.1205 46.368 83.713 45.9605 83.2105 45.9605L24.4099 45.9605C23.9074 45.9605 23.4999 46.368 23.4999 46.8705L23.4999 78.7606C22.5267 79.6136 21.9869 80.8578 22.0293 82.1513 21.9661 83.6535 22.7056 85.0762 23.9712 85.8877 24.1059 85.9611 24.2566 85.9998 24.4099 86.0005L83.2105 86.0005C83.3637 85.9998 83.5146 85.9611 83.6491 85.8877 84.9147 85.0762 85.6542 83.6535 85.591 82.1513 85.6335 80.8578 85.0936 79.6136 84.1205 78.7606ZM82.3005 47.7805 82.3005 78.2983 25.3199 78.2983 25.3199 47.7805ZM82.9229 84.1805 24.6974 84.1805C23.5756 83.0691 23.5672 81.2587 24.6787 80.1371 24.6849 80.1307 24.6912 80.1245 24.6974 80.1183L82.9229 80.1183C84.0446 81.2269 84.0553 83.0349 82.9468 84.1567 82.9389 84.1647 82.9309 84.1725 82.9229 84.1805Z" transform="matrix(1.07692 0 0 1 2862 2046)"/><path d="M47.3583 69.9409C47.4988 70.0258 47.66 70.0706 47.8242 70.0701 48.3267 70.0703 48.7344 69.6629 48.7346 69.1604 48.7346 68.8403 48.5666 68.5436 48.2919 68.3793L39.6233 63.1977 48.2938 58.0126C48.734 57.7701 48.8944 57.2167 48.6519 56.7764 48.4093 56.3362 47.856 56.1758 47.4158 56.4184 47.3961 56.4292 47.377 56.4406 47.3583 56.4528L37.3828 62.4261C36.952 62.6851 36.813 63.2442 37.072 63.6749 37.1486 63.8023 37.2553 63.9092 37.3828 63.9858Z" transform="matrix(1.07692 0 0 1 2862 2046)"/><path d="M59.0136 69.6278C59.1783 69.9028 59.4757 70.0708 59.7962 70.0701 59.9605 70.071 60.1218 70.0262 60.2621 69.9409L70.2375 63.9767C70.6683 63.7177 70.8074 63.1586 70.5484 62.7278 70.4717 62.6004 70.3651 62.4936 70.2375 62.417L60.2621 56.4528C59.844 56.174 59.2789 56.2868 59.0001 56.7049 58.7213 57.1231 58.8341 57.6881 59.2522 57.9669 59.2769 57.9834 59.3022 57.9986 59.3284 58.0126L67.9971 63.1977 59.3321 68.3793C58.8996 68.6352 58.7564 69.1934 59.0125 69.626 59.0128 69.6265 59.0132 69.6273 59.0136 69.6278Z" transform="matrix(1.07692 0 0 1 2862 2046)"/><path d="M51.5279 70.0246C51.6207 70.055 51.7177 70.0703 51.8155 70.0701 52.2069 70.0697 52.5544 69.8191 52.6781 69.4476L56.6676 57.5121C56.8445 57.0416 56.6066 56.5169 56.1361 56.34 55.6657 56.1631 55.141 56.401 54.9641 56.8714 54.9559 56.8929 54.9486 56.9149 54.9422 56.9369L50.9601 68.8725C50.7997 69.3474 51.0536 69.8624 51.5279 70.0246Z" transform="matrix(1.07692 0 0 1 2862 2046)"/></g></g></g></g></svg>